<svg width="888" height="773" viewBox="0 0 888 773" fill="none" xmlns="http://www.w3.org/2000/svg">
<g clip-path="url(#clip0_501_16)">
<path d="M887.772 763.25L252.263 772.831L0 728.121H393.817L887.772 763.25Z" fill="#E6E6E6"/>
<path d="M755.258 250.331C824.382 250.361 880.442 194.349 880.472 125.225C880.502 56.1012 824.49 0.0409505 755.366 0.011093C686.242 -0.0187645 630.182 55.9931 630.152 125.117C630.122 194.241 686.134 250.301 755.258 250.331Z" fill="#EB4D4B"/>
<path d="M179.84 733.435C179.84 733.435 181.327 702.277 211.812 705.898Z" fill="#474B47"/>
<path d="M171.227 703.784C179.653 703.784 186.484 696.953 186.484 688.527C186.484 680.1 179.653 673.27 171.227 673.27C162.801 673.27 155.97 680.1 155.97 688.527C155.97 696.953 162.801 703.784 171.227 703.784Z" fill="#EB4D4B"/>
<path d="M173.051 714.219H168.744V744.366H173.051V714.219Z" fill="#474B47"/>
<path d="M682.287 738.758C682.287 738.758 683.774 707.599 714.258 711.221Z" fill="#474B47"/>
<path d="M673.673 709.106C682.1 709.106 688.93 702.275 688.93 693.849C688.93 685.423 682.1 678.592 673.673 678.592C665.247 678.592 658.416 685.423 658.416 693.849C658.416 702.275 665.247 709.106 673.673 709.106Z" fill="#EB4D4B"/>
<path d="M675.497 719.541H671.191V749.688H675.497V719.541Z" fill="#474B47"/>
<path d="M755.738 744.08C755.738 744.08 757.225 712.921 787.709 716.543Z" fill="#474B47"/>
<path d="M747.124 714.428C755.55 714.428 762.381 707.597 762.381 699.171C762.381 690.745 755.55 683.914 747.124 683.914C738.698 683.914 731.867 690.745 731.867 699.171C731.867 707.597 738.698 714.428 747.124 714.428Z" fill="#EB4D4B"/>
<path d="M748.948 724.863H744.642V755.01H748.948V724.863Z" fill="#474B47"/>
<path d="M300.129 718.531C300.129 718.531 301.616 687.372 332.101 690.994Z" fill="#474B47"/>
<path d="M291.516 688.881C299.942 688.881 306.773 682.051 306.773 673.624C306.773 665.198 299.942 658.367 291.516 658.367C283.09 658.367 276.259 665.198 276.259 673.624C276.259 682.051 283.09 688.881 291.516 688.881Z" fill="#EB4D4B"/>
<path d="M293.34 699.314H289.033V729.461H293.34V699.314Z" fill="#474B47"/>
<path d="M73.3899 723.853C73.3899 723.853 74.8769 692.695 105.361 696.316Z" fill="#474B47"/>
<path d="M64.7764 694.204C73.2027 694.204 80.0335 687.373 80.0335 678.947C80.0335 670.52 73.2027 663.689 64.7764 663.689C56.3501 663.689 49.5193 670.52 49.5193 678.947C49.5193 687.373 56.3501 694.204 64.7764 694.204Z" fill="#EB4D4B"/>
<path d="M66.6005 704.639H62.2938V734.786H66.6005V704.639Z" fill="#474B47"/>
<path d="M442.277 669.71C534.082 669.71 608.505 595.287 608.505 503.482C608.505 411.677 534.082 337.254 442.277 337.254C350.472 337.254 276.049 411.677 276.049 503.482C276.049 595.287 350.472 669.71 442.277 669.71Z" fill="#474B47"/>
<path d="M337.626 516.825C341.754 511.882 346.918 507.907 352.751 505.179C358.584 502.45 364.946 501.036 371.385 501.036C377.825 501.036 384.187 502.45 390.02 505.179C395.853 507.907 401.017 511.882 405.145 516.825C412.209 510.081 417.092 501.376 419.163 491.832C421.235 482.288 420.401 472.342 416.769 463.277C413.136 454.211 406.872 446.441 398.783 440.968C390.694 435.495 381.152 432.57 371.385 432.57C361.619 432.57 352.077 435.495 343.988 440.968C335.899 446.441 329.635 454.211 326.002 463.277C322.37 472.342 321.536 482.288 323.607 491.832C325.679 501.376 330.562 510.081 337.626 516.825V516.825Z" fill="white"/>
<path d="M469.631 516.825C473.759 511.882 478.922 507.907 484.756 505.178C490.589 502.45 496.95 501.036 503.39 501.036C509.83 501.036 516.191 502.45 522.025 505.178C527.858 507.907 533.021 511.882 537.15 516.825C544.214 510.081 549.096 501.376 551.168 491.832C553.24 482.288 552.406 472.342 548.773 463.277C545.141 454.211 538.876 446.441 530.788 440.968C522.699 435.495 513.156 432.57 503.39 432.57C493.624 432.57 484.081 435.495 475.993 440.968C467.904 446.441 461.64 454.211 458.007 463.277C454.375 472.342 453.54 482.288 455.612 491.832C457.684 501.376 462.567 510.081 469.631 516.825Z" fill="white"/>
<path d="M354.707 481.632C363.996 481.632 371.525 474.102 371.525 464.814C371.525 455.526 363.996 447.996 354.707 447.996C345.419 447.996 337.89 455.526 337.89 464.814C337.89 474.102 345.419 481.632 354.707 481.632Z" fill="#222629"/>
<path d="M486.707 481.632C495.996 481.632 503.525 474.102 503.525 464.814C503.525 455.526 495.996 447.996 486.707 447.996C477.419 447.996 469.89 455.526 469.89 464.814C469.89 474.102 477.419 481.632 486.707 481.632Z" fill="#222629"/>
<path d="M322.495 564.595C333.295 564.595 342.051 555.839 342.051 545.039C342.051 534.238 333.295 525.482 322.495 525.482C311.694 525.482 302.938 534.238 302.938 545.039C302.938 555.839 311.694 564.595 322.495 564.595Z" fill="#EB4D4B"/>
<path d="M547.392 564.595C558.192 564.595 566.948 555.839 566.948 545.039C566.948 534.238 558.192 525.482 547.392 525.482C536.591 525.482 527.836 534.238 527.836 545.039C527.836 555.839 536.591 564.595 547.392 564.595Z" fill="#EB4D4B"/>
<path d="M434.943 505.926L420.276 569.484L444.721 545.039L434.943 505.926Z" fill="#EB4D4B"/>
<path d="M510.307 750.379L493.655 736.403L494.043 750.379H488.871L488.458 735.601L465.975 750.379H456.563L488.29 729.525L487.061 685.736L486.143 652.665L491.302 652.523L492.233 685.736L493.461 729.486L518.348 750.379H510.307Z" fill="#474B47"/>
<path d="M432.076 750.379L415.424 736.403L415.812 750.379H410.654L410.24 735.601L387.757 750.379H378.345L410.059 729.525L408.831 685.736L407.913 652.665L413.084 652.523L414.015 685.736L415.23 729.486L440.118 750.379H432.076Z" fill="#474B47"/>
<path d="M444.721 325.031C440.16 325.031 436.137 328.574 433.446 334.016C431.075 325.833 426.094 320.142 420.276 320.142C419.881 320.181 419.488 320.247 419.102 320.339C416.866 311.602 411.668 305.475 405.609 305.475C397.508 305.475 390.942 316.419 390.942 329.92C390.942 343.421 397.508 354.365 405.609 354.365C406.004 354.326 406.397 354.26 406.783 354.168C409.019 362.905 414.217 369.032 420.276 369.032C424.837 369.032 428.861 365.489 431.551 360.047C433.922 368.231 438.904 373.921 444.721 373.921C452.822 373.921 459.389 362.977 459.389 349.476C459.389 335.975 452.822 325.031 444.721 325.031Z" fill="#474B47"/>
<path d="M286.25 566.475C279.83 566.475 273.472 565.21 267.541 562.753C261.609 560.296 256.219 556.695 251.679 552.155C247.139 547.615 243.538 542.225 241.081 536.294C238.624 530.362 237.36 524.004 237.36 517.584V493.139C237.36 480.172 242.511 467.736 251.679 458.568C260.848 449.399 273.284 444.248 286.25 444.248V444.248V566.475Z" fill="#EB4D4B"/>
<path d="M598.303 444.248C604.724 444.248 611.081 445.513 617.013 447.97C622.945 450.427 628.334 454.028 632.874 458.568C637.414 463.108 641.016 468.497 643.473 474.429C645.93 480.361 647.194 486.718 647.194 493.139V517.584C647.194 524.004 645.93 530.362 643.473 536.294C641.016 542.225 637.414 547.615 632.874 552.155C628.334 556.695 622.945 560.296 617.013 562.753C611.081 565.21 604.724 566.475 598.304 566.475V566.475V444.248H598.303Z" fill="#EB4D4B"/>
<path d="M623.923 496.981H616.166C616.166 398.604 536.13 318.568 437.752 318.568C339.375 318.568 259.338 398.604 259.338 496.981H251.581C251.581 394.326 335.097 310.811 437.752 310.811C540.408 310.811 623.923 394.326 623.923 496.981Z" fill="#EB4D4B"/>
<path d="M171.547 347.474L171.549 347.471L167.904 345.953L152.528 339.453L147.016 337.123L146.593 338.191L139.189 356.885L160.026 365.704L160.136 365.803L158.731 369.114C158.539 369.417 158.375 369.737 158.242 370.07C157.258 372.553 159.116 375.023 160.872 375.719C162.628 376.414 164.849 374.965 165.833 372.482C166.803 370.032 165.855 366.92 164.143 366.168L164.145 366.165L160.501 364.647L148.034 359.801L155.157 341.816L154.101 341.398L146.976 359.39L145.434 358.79L152.588 340.728L152.776 340.808L167.43 347.01L167.539 347.109L166.135 350.42C165.943 350.723 165.779 351.043 165.646 351.375C164.662 353.859 166.52 356.329 168.276 357.025C170.032 357.72 172.253 356.271 173.237 353.788C174.207 351.338 173.259 348.226 171.547 347.474Z" fill="white"/>
<path d="M243.667 393.367C236.103 389.043 237.617 379.552 237.617 379.552C237.426 373.387 232.333 374.26 232.333 374.26L230.479 374.683C229.618 374.283 228.669 374.108 227.722 374.173L224.902 374.648C231.324 376.156 230.796 381.528 230.796 381.528L231.696 387.809L214.87 381.021L216.802 376.466C217.069 376.046 217.297 375.602 217.482 375.139C218.848 371.69 216.268 368.259 213.829 367.293C211.39 366.327 208.305 368.34 206.939 371.789C205.591 375.192 206.908 379.514 209.285 380.558L209.283 380.562L214.345 382.67L214.382 382.551L243.667 393.367ZM235.123 382.331L235.662 388.343C233.757 385.67 232.862 382.408 233.137 379.137C233.092 377.973 232.699 376.85 232.01 375.911C233.07 376.591 233.922 377.55 234.471 378.683C235.02 379.816 235.246 381.078 235.123 382.331V382.331Z" fill="white"/>
<path d="M115.319 304.457L115.321 304.453L110.259 302.345L89.1049 294.121L94.4441 289.371C95.4886 287.979 97.0311 287.044 98.7488 286.762C100.467 286.481 102.227 286.875 103.661 287.861L102.004 285.399C102.004 285.399 98.8892 281.275 94.5291 285.638C94.5291 285.638 89.1342 293.591 80.6603 291.564L109.601 303.813L109.752 303.95L107.802 308.549C107.535 308.969 107.307 309.413 107.122 309.876C105.756 313.325 108.336 316.756 110.775 317.722C113.214 318.688 116.299 316.675 117.665 313.226C119.013 309.823 117.696 305.501 115.319 304.457Z" fill="white"/>
<path d="M192.766 277.541L190.816 282.139C190.549 282.56 190.321 283.004 190.135 283.466C188.769 286.916 191.349 290.347 193.788 291.313C196.228 292.279 199.313 290.266 200.679 286.816C202.026 283.414 200.709 279.092 198.332 278.047L198.334 278.043L193.273 275.935L175.958 269.204L185.851 244.225L184.385 243.644L174.488 268.633L172.347 267.801L182.282 242.714L182.544 242.825L202.897 251.439L203.049 251.577L201.099 256.175C200.832 256.596 200.604 257.04 200.418 257.502C199.052 260.952 201.632 264.383 204.072 265.349C206.511 266.315 209.596 264.302 210.962 260.852C212.309 257.45 210.992 253.128 208.616 252.083L208.618 252.079L203.556 249.971L182.871 241.227L182.87 241.227L182.199 240.943L174.544 237.707L163.674 265.154L192.614 277.403L192.766 277.541Z" fill="white"/>
<path d="M101.054 136.973L101.057 136.966L92.3439 133.337L55.9277 119.181L65.1188 111.004C65.1188 111.004 71.2325 102.521 80.985 108.404L78.133 104.165C78.133 104.165 72.7708 97.0665 65.2652 104.577C65.2652 104.577 55.9783 118.268 41.3909 114.778L91.2098 135.864L91.4713 136.101L88.1142 144.017C87.6547 144.741 87.2626 145.506 86.9429 146.301C84.5912 152.239 89.0328 158.146 93.2316 159.809C97.4305 161.472 102.741 158.006 105.093 152.068C107.412 146.211 105.145 138.771 101.054 136.973Z" fill="white"/>
<path d="M127.793 255.886C109.709 245.546 113.328 222.855 113.328 222.855C112.873 208.115 100.694 210.201 100.694 210.201L96.2614 211.213C94.2024 210.257 91.9351 209.838 89.6705 209.994L82.928 211.129C98.281 214.736 97.0196 227.579 97.0196 227.579L99.1705 242.596L58.9415 226.368L63.5605 215.477C64.1988 214.471 64.7434 213.409 65.1875 212.304C68.4538 204.056 62.2847 195.853 56.4528 193.543C50.6209 191.234 43.2454 196.047 39.979 204.294C36.7572 212.429 39.9058 222.763 45.5889 225.26L45.5841 225.27L57.6858 230.31L57.776 230.024L127.793 255.886ZM107.364 229.5L108.659 243.924C101.063 233.841 102.616 221.861 102.616 221.861C102.509 219.079 101.57 216.393 99.9216 214.15C108.647 219.371 107.364 229.5 107.364 229.5Z" fill="white"/>
</g>
<defs>
<clipPath id="clip0_501_16">
<rect width="887.772" height="772.831" fill="white"/>
</clipPath>
</defs>
</svg>
